<?xml version="1.0" standalone="no"?>
<!DOCTYPE svg PUBLIC "-//W3C//DTD SVG 20010904//EN"
 "http://www.w3.org/TR/2001/REC-SVG-20010904/DTD/svg10.dtd">
<svg version="1.0" xmlns="http://www.w3.org/2000/svg"
 width="696.000000pt" height="696.000000pt" viewBox="0 0 696.000000 696.000000"
 preserveAspectRatio="xMidYMid meet">
<metadata>
Created by potrace 1.11, written by Peter Selinger 2001-2013
</metadata>
<g transform="translate(0.000000,696.000000) scale(0.100000,-0.100000)"
fill="#000000" stroke="none">
<path d="M5220 6842 c-12 -26 -46 -106 -77 -179 -54 -129 -55 -131 -91 -138
-50 -9 -175 -51 -243 -81 l-57 -26 -43 23 c-24 12 -45 20 -45 18 -1 -2 -10 3
-20 12 -11 9 -44 29 -74 45 -30 15 -71 37 -90 49 -53 33 -67 35 -88 17 -63
-55 -173 -153 -215 -194 l-50 -46 47 -119 c27 -65 60 -144 73 -175 l25 -57
-28 -48 c-41 -69 -91 -174 -109 -231 -16 -47 -20 -51 -63 -63 -64 -17 -62 -16
-64 -19 -2 -1 -10 -3 -18 -5 -32 -6 -235 -66 -239 -71 -5 -5 -7 -28 -16 -214
-2 -58 -6 -119 -8 -137 -5 -35 -11 -31 128 -88 50 -21 108 -45 130 -55 22 -10
50 -21 62 -24 28 -9 42 -27 47 -62 6 -44 55 -193 81 -244 l23 -46 -40 -74
c-22 -41 -52 -97 -68 -125 -15 -27 -39 -71 -53 -97 l-26 -47 42 -47 c23 -26
53 -59 67 -74 14 -15 54 -59 89 -98 50 -56 67 -69 80 -62 9 5 72 32 141 60 69
28 139 57 156 65 30 14 74 10 74 -6 0 -5 4 -9 10 -9 5 0 31 -13 57 -28 46 -27
155 -74 200 -87 22 -6 30 -19 43 -70 4 -16 25 -86 45 -155 21 -69 38 -131 38
-137 0 -7 3 -14 6 -14 8 -2 123 -6 284 -9 145 -4 139 -6 182 90 85 188 131
270 158 279 15 6 27 8 27 6 0 -3 12 0 28 6 15 6 34 12 42 14 30 6 135 48 157
63 21 13 27 12 65 -11 24 -14 59 -34 78 -44 19 -11 74 -43 123 -72 l87 -52 23
23 c50 48 221 204 238 216 19 13 13 32 -56 187 -7 17 -27 65 -45 107 l-31 77
33 58 c37 63 111 230 111 250 0 13 31 23 251 87 65 19 120 36 122 38 3 4 8 78
19 294 l5 91 -46 19 c-26 10 -106 44 -178 74 l-131 55 -17 68 c-22 83 -76 225
-89 232 -18 12 -8 48 33 123 23 42 51 96 63 119 12 23 28 49 35 58 7 8 9 15 6
15 -4 0 2 12 12 28 16 22 18 31 8 44 -13 17 -155 175 -216 239 l-35 37 -120
-50 c-66 -28 -140 -59 -165 -71 -58 -26 -70 -25 -124 12 -25 17 -47 31 -50 31
-3 0 -32 12 -63 28 -32 15 -77 34 -101 42 -24 7 -48 22 -53 32 -5 10 -7 18 -3
18 3 0 2 6 -3 13 -6 6 -13 26 -17 42 -4 17 -16 61 -27 98 -12 37 -22 73 -23
80 -8 39 -31 100 -40 103 -6 2 -51 6 -101 9 -49 3 -131 7 -182 10 l-92 5 -21
-48z m285 -948 c64 -16 205 -82 205 -96 0 -4 4 -8 10 -8 13 0 110 -96 146
-145 34 -46 84 -146 84 -169 0 -8 4 -17 9 -20 19 -12 31 -192 18 -281 -21
-149 -96 -283 -223 -395 -39 -34 -50 -41 -118 -79 -114 -64 -296 -87 -437 -55
-242 56 -444 264 -487 504 -7 38 -7 222 0 250 33 136 86 236 171 320 66 66 94
86 172 125 97 48 111 52 190 61 28 4 51 8 53 9 8 8 153 -7 207 -21z"/>
<path d="M1620 4889 c-63 -27 -120 -49 -127 -49 -7 0 -13 -4 -13 -10 0 -5 -6
-10 -14 -10 -13 0 -61 -19 -153 -61 -24 -10 -50 -19 -58 -19 -8 0 -15 -4 -15
-10 0 -6 -3 -9 -7 -9 -25 4 -30 -5 -27 -58 2 -54 12 -259 19 -383 10 -164 10
-162 -21 -188 -88 -73 -196 -174 -244 -229 -30 -35 -67 -77 -82 -93 -14 -17
-28 -35 -30 -40 -4 -13 -30 -13 -153 -6 -172 11 -297 17 -378 20 l-79 3 -18
-41 c-39 -88 -165 -392 -182 -441 -6 -16 -15 -34 -19 -39 -15 -17 -10 -40 15
-61 39 -34 165 -146 206 -184 36 -34 151 -137 192 -173 18 -15 19 -25 12 -110
-9 -108 -10 -327 -2 -410 5 -50 3 -60 -16 -80 -21 -22 -156 -145 -204 -186
-49 -42 -167 -148 -194 -174 l-27 -27 54 -133 c31 -73 59 -142 65 -153 22 -47
92 -222 97 -243 6 -24 9 -25 98 -21 111 4 403 19 466 23 54 5 53 5 103 -59 62
-79 236 -247 315 -305 l33 -25 -6 -135 c-11 -219 -17 -331 -20 -396 -3 -33 -1
-65 2 -70 4 -5 36 -20 72 -33 81 -30 139 -51 359 -135 l175 -65 105 104 c345
339 351 344 390 338 47 -8 353 -10 413 -2 26 3 51 3 55 0 4 -3 33 -35 63 -71
30 -36 60 -70 66 -76 5 -6 26 -30 45 -54 18 -23 42 -52 52 -63 10 -12 37 -44
60 -71 23 -27 53 -62 68 -78 l25 -30 55 25 c97 44 273 119 284 122 5 1 33 12
60 25 28 13 53 24 57 24 3 1 10 4 14 8 4 5 15 8 24 8 27 0 48 32 44 65 -2 17
-6 80 -10 140 -3 61 -7 133 -9 160 -13 206 -14 251 -7 260 4 6 36 34 72 64 84
71 185 174 255 260 l56 69 62 -4 c34 -2 109 -6 167 -8 58 -3 165 -8 237 -11
l133 -7 9 24 c5 13 18 44 29 68 11 25 45 108 77 185 31 77 62 154 70 170 7 17
21 48 30 70 l16 40 -33 29 c-18 16 -51 45 -73 65 -22 21 -67 61 -100 91 -33
29 -98 88 -144 129 -46 42 -87 77 -92 79 -5 2 -5 29 -1 60 8 68 8 398 -1 463
l-6 46 76 69 c42 38 83 76 93 84 17 15 146 132 228 207 l46 41 -57 139 c-57
139 -130 317 -150 363 -5 14 -11 27 -11 30 -4 21 -21 27 -68 24 -29 -2 -100
-6 -158 -8 -58 -3 -161 -8 -230 -11 -69 -3 -130 -8 -137 -10 -6 -2 -26 15 -45
37 -102 126 -233 258 -331 332 -36 27 -36 29 -32 89 8 140 19 367 19 434 1 40
4 73 8 73 3 0 4 9 1 19 -4 17 -71 51 -100 51 -6 0 -13 3 -15 8 -1 4 -30 18
-63 31 -115 46 -300 122 -332 137 -36 16 -60 18 -65 5 -2 -8 -73 -88 -174
-198 -12 -12 -52 -57 -90 -100 -136 -152 -112 -136 -190 -127 -88 10 -339 10
-425 0 l-66 -7 -49 54 c-27 30 -83 92 -125 138 -42 46 -101 112 -133 147 -31
34 -64 71 -74 82 -9 11 -23 20 -32 19 -8 0 -67 -23 -130 -50z m929 -1383 c64
-6 151 -26 227 -51 55 -18 158 -67 162 -77 2 -4 9 -8 17 -8 7 0 18 -7 25 -15
7 -8 16 -13 20 -10 5 3 10 2 12 -2 1 -5 26 -26 53 -47 83 -65 225 -225 225
-253 0 -7 4 -13 8 -13 27 0 130 -278 136 -365 1 -16 4 -34 7 -40 8 -14 4 -219
-6 -280 -4 -27 -11 -58 -16 -67 -6 -10 -7 -18 -4 -18 3 0 1 -8 -4 -18 -6 -11
-12 -31 -15 -45 -6 -34 -70 -175 -89 -198 -9 -9 -13 -20 -10 -23 4 -3 1 -6 -5
-6 -7 0 -12 -5 -12 -11 0 -18 -96 -133 -157 -189 -73 -67 -217 -163 -263 -175
-3 -1 -22 -9 -42 -18 -43 -20 -164 -53 -228 -63 -57 -9 -229 -9 -295 0 -315
43 -605 255 -753 551 -28 57 -60 140 -67 178 -2 9 -6 20 -8 25 -4 6 -12 55
-23 137 -9 74 -4 225 11 292 23 103 108 322 134 343 3 3 18 24 33 47 41 63
142 167 216 222 158 116 329 182 512 197 41 4 76 8 78 9 1 1 15 1 30 -1 15 -1
56 -5 91 -8z"/>
</g>
</svg>
